<?xml version="1.0" encoding="UTF-8" standalone="no"?>
<svg
   xmlns:dc="http://purl.org/dc/elements/1.1/"
   xmlns:cc="http://creativecommons.org/ns#"
   xmlns:rdf="http://www.w3.org/1999/02/22-rdf-syntax-ns#"
   xmlns:svg="http://www.w3.org/2000/svg"
   xmlns="http://www.w3.org/2000/svg"
   xmlns:sodipodi="http://sodipodi.sourceforge.net/DTD/sodipodi-0.dtd"
   xmlns:inkscape="http://www.inkscape.org/namespaces/inkscape"
   width="100%"
   height="100%"
   viewBox="0 0 100 100"
   id="svg2"
   version="1.1"
   inkscape:version="0.91 r13725"
   sodipodi:docname="logo.svg"
   inkscape:export-filename="/home/avinash/Documents/Projects/SvgOptimizer/assets/icon_16.png"
   inkscape:export-xdpi="14.4"
   inkscape:export-ydpi="14.4">
  <metadata
     id="metadata36">
    <rdf:RDF>
      <cc:Work
         rdf:about="">
        <dc:format>image/svg+xml</dc:format>
        <dc:type
           rdf:resource="http://purl.org/dc/dcmitype/StillImage" />
        <dc:title>SVG Logo</dc:title>
        <cc:license
           rdf:resource="http://creativecommons.org/licenses/by/3.0/" />
      </cc:Work>
      <cc:License
         rdf:about="http://creativecommons.org/licenses/by/3.0/">
        <cc:permits
           rdf:resource="http://creativecommons.org/ns#Reproduction" />
        <cc:permits
           rdf:resource="http://creativecommons.org/ns#Distribution" />
        <cc:requires
           rdf:resource="http://creativecommons.org/ns#Notice" />
        <cc:requires
           rdf:resource="http://creativecommons.org/ns#Attribution" />
        <cc:permits
           rdf:resource="http://creativecommons.org/ns#DerivativeWorks" />
      </cc:License>
    </rdf:RDF>
  </metadata>
  <defs
     id="defs34" />
  <sodipodi:namedview
     pagecolor="#ffffff"
     bordercolor="#666666"
     borderopacity="1"
     objecttolerance="10"
     gridtolerance="10"
     guidetolerance="10"
     inkscape:pageopacity="0"
     inkscape:pageshadow="2"
     inkscape:window-width="1366"
     inkscape:window-height="728"
     id="namedview32"
     showgrid="false"
     inkscape:zoom="5.4900001"
     inkscape:cx="11.29326"
     inkscape:cy="50.000001"
     inkscape:window-x="0"
     inkscape:window-y="18"
     inkscape:window-maximized="0"
     inkscape:current-layer="layer4" />
  <title
     id="title4">SVG Logo</title>
  <g
     inkscape:groupmode="layer"
     id="layer1"
     inkscape:label="bg"
     style="display:inline"
     sodipodi:insensitive="true">
    <circle
       style="fill:#ff9900"
       id="ne"
       cx="72.400002"
       cy="27.6"
       r="18.4" />
    <circle
       style="fill:#ff9900"
       id="e"
       cx="81.599998"
       cy="50"
       r="18.4" />
    <circle
       style="fill:#ff9900"
       id="se"
       cx="72.400002"
       cy="72.400002"
       r="18.4" />
    <circle
       style="fill:#ff9900"
       id="s"
       cx="50"
       cy="81.599998"
       r="18.4" />
    <circle
       style="fill:#ff9900"
       id="sw"
       cx="27.6"
       cy="72.400002"
       r="18.4" />
    <circle
       style="fill:#ff9900"
       id="w"
       cx="18.4"
       cy="50"
       r="18.4" />
    <circle
       style="fill:#ff9900"
       id="nw"
       cx="27.6"
       cy="27.6"
       r="18.4" />
    <circle
       style="fill:#ff9900"
       id="n"
       cx="50"
       cy="18.4"
       r="18.4" />
  </g>
  <g
     inkscape:groupmode="layer"
     id="layer2"
     inkscape:label="mg"
     style="display:inline"
     sodipodi:insensitive="true">
    <path
       id="black-star"
       d="m 63.086,18.385 c 0,-7.227 -5.859,-13.086 -13.1,-13.086 -7.235,0 -13.096,5.859 -13.096,13.086 -5.1,-5.11 -13.395,-5.11 -18.497,0 -5.119,5.12 -5.119,13.408 0,18.524 -7.234,0 -13.103,5.859 -13.103,13.085 0,7.23 5.87,13.098 13.103,13.098 -5.119,5.11 -5.119,13.395 0,18.515 5.102,5.104 13.397,5.104 18.497,0 0,7.228 5.86,13.083 13.096,13.083 7.24,0 13.1,-5.855 13.1,-13.083 5.118,5.104 13.416,5.104 18.513,0 5.101,-5.12 5.101,-13.41 0,-18.515 7.216,0 13.081,-5.869 13.081,-13.098 0,-7.227 -5.865,-13.085 -13.081,-13.085 5.101,-5.119 5.101,-13.406 0,-18.524 -5.097,-5.11 -13.393,-5.11 -18.513,0 z"
       inkscape:connector-curvature="0" />
  </g>
  <g
     inkscape:groupmode="layer"
     id="layer3"
     inkscape:label="fg"
     style="display:inline"
     sodipodi:insensitive="true">
    <path
       id="white-star"
       d="m 55.003,23.405 0,14.488 L 65.26,27.64 c 0,-1.812 0.691,-3.618 2.066,-5.005 2.78,-2.771 7.275,-2.771 10.024,0 2.771,2.766 2.771,7.255 0,10.027 -1.377,1.375 -3.195,2.072 -5.015,2.072 l -10.234,10.248 14.489,0 c 1.29,-1.28 3.054,-2.076 5.011,-2.076 3.9,0 7.078,3.179 7.078,7.087 0,3.906 -3.178,7.088 -7.078,7.088 -1.957,0 -3.721,-0.798 -5.011,-2.072 l -14.49,0 10.229,10.244 c 1.824,0 3.642,0.694 5.015,2.086 2.774,2.759 2.774,7.25 0,10.01 -2.75,2.774 -7.239,2.774 -10.025,0 -1.372,-1.372 -2.064,-3.192 -2.064,-5.003 L 55,62.094 55,76.593 c 1.271,1.276 2.084,3.054 2.084,5.013 0,3.906 -3.177,7.077 -7.098,7.077 -3.919,0 -7.094,-3.167 -7.094,-7.077 0,-1.959 0.811,-3.732 2.081,-5.013 l 0,-14.499 -10.235,10.252 c 0,1.812 -0.705,3.627 -2.084,5.003 -2.769,2.772 -7.251,2.772 -10.024,0 -2.775,-2.764 -2.775,-7.253 0,-10.012 1.377,-1.39 3.214,-2.086 5.012,-2.086 l 10.257,-10.242 -14.485,0 c -1.289,1.276 -3.072,2.072 -5.015,2.072 -3.917,0 -7.096,-3.18 -7.096,-7.088 0,-3.908 3.177,-7.087 7.096,-7.087 1.94,0 3.725,0.796 5.015,2.076 l 14.488,0 -10.256,-10.246 c -1.797,0 -3.632,-0.697 -5.012,-2.071 -2.775,-2.772 -2.775,-7.26 0,-10.027 2.773,-2.771 7.256,-2.771 10.027,0 1.375,1.386 2.083,3.195 2.083,5.005 l 10.235,10.252 0,-14.488 c -1.27,-1.287 -2.082,-3.053 -2.082,-5.023 0,-3.908 3.175,-7.079 7.096,-7.079 3.919,0 7.097,3.168 7.097,7.079 -0.002,1.972 -0.816,3.735 -2.087,5.021 z"
       inkscape:connector-curvature="0"
       style="fill:#ffffff" />
  </g>
  <g
     inkscape:groupmode="layer"
     id="layer4"
     inkscape:label="shape">
    <path
       style="display:inline;fill:#000000"
       d="m 48.488281,36.775391 c -1.807646,0 -3.475044,1.38583 -3.71289,3.261718 -2.68e-4,0.0021 -0.0017,0.0037 -0.002,0.0059 l -0.0078,0.0625 -0.115234,-0.04687 -0.02539,-0.0098 c -1.692524,-0.662292 -3.765353,0.07242 -4.648438,1.691406 l 0.03906,-0.07031 -1.984375,3.43164 c -0.943664,1.596971 -0.52073,3.720682 0.904297,4.845704 l 0.0098,0.0098 0.08789,0.07031 -0.08789,0.06836 -0.0098,0.0098 c -1.468568,1.159395 -1.794277,3.216677 -0.958985,4.748047 0.01273,0.0236 0.02575,0.04703 0.03906,0.07031 l 2,3.458984 -0.03906,-0.07031 c 0.939267,1.721988 2.89341,2.329961 4.574219,1.71875 0.0334,-0.01183 0.06661,-0.0242 0.09961,-0.03711 l 0.115234,-0.04687 0.0098,0.06641 c 0.237846,1.875887 1.905236,3.261719 3.71289,3.261719 l 4,0 c 1.807664,0 3.474864,-1.368675 3.714844,-3.261719 l 0.0098,-0.06641 0.115234,0.04687 0.02539,0.0098 c 1.692543,0.662315 3.765355,-0.07244 4.648437,-1.691406 l -0.03906,0.07031 2,-3.458984 c 0.01331,-0.02328 0.02633,-0.04671 0.03906,-0.07031 0.835271,-1.531355 0.509592,-3.588645 -0.958984,-4.748047 l -0.0098,-0.0098 -0.08789,-0.06836 0.08789,-0.07031 0.0098,-0.0098 c 1.468572,-1.159399 1.794266,-3.216685 0.958984,-4.748047 -0.01273,-0.0236 -0.02575,-0.04704 -0.03906,-0.07031 l -2,-3.458984 0.03906,0.07031 c -0.939268,-1.721992 -2.893428,-2.329943 -4.574219,-1.71875 -0.0334,0.01183 -0.06661,0.0242 -0.09961,0.03711 l -0.115234,0.04687 -0.0098,-0.06836 C 55.96314,38.144107 54.295932,36.775434 52.488277,36.775434 l -4,0 z"
       id="path4279"
       inkscape:connector-curvature="0"
       sodipodi:nodetypes="ccccccccccccccccccccccsscccccccccccccccccccccscc" />
    <path
       sodipodi:type="inkscape:offset"
       inkscape:radius="0"
       inkscape:original="M 48.488281 40.025391 C 48.238281 40.025391 48.03 40.205312 48 40.445312 L 47.619141 43.095703 C 47.009141 43.345703 46.449687 43.686172 45.929688 44.076172 L 43.439453 43.076172 C 43.209453 42.986172 42.950078 43.076875 42.830078 43.296875 L 40.830078 46.755859 C 40.700078 46.975859 40.759219 47.246484 40.949219 47.396484 L 43.058594 49.046875 C 43.018594 49.366875 42.988281 49.695391 42.988281 50.025391 C 42.988281 50.355391 43.018594 50.685859 43.058594 51.005859 L 40.949219 52.65625 C 40.759219 52.80625 40.710078 53.076875 40.830078 53.296875 L 42.830078 56.755859 C 42.950078 56.975859 43.219453 57.056563 43.439453 56.976562 L 45.929688 55.976562 C 46.449688 56.376562 47.009141 56.705078 47.619141 56.955078 L 48 59.605469 C 48.03 59.845469 48.238281 60.025391 48.488281 60.025391 L 52.488281 60.025391 C 52.738281 60.025391 52.948516 59.845469 52.978516 59.605469 L 53.359375 56.955078 C 53.969375 56.705078 54.528828 56.366563 55.048828 55.976562 L 57.539062 56.976562 C 57.769062 57.066563 58.028437 56.975859 58.148438 56.755859 L 60.148438 53.296875 C 60.268437 53.076875 60.219297 52.80625 60.029297 52.65625 L 57.919922 51.005859 C 57.959922 50.685859 57.988281 50.365391 57.988281 50.025391 C 57.988281 49.685391 57.959922 49.366875 57.919922 49.046875 L 60.029297 47.396484 C 60.219297 47.246484 60.268437 46.975859 60.148438 46.755859 L 58.148438 43.296875 C 58.028438 43.076875 57.759063 42.996172 57.539062 43.076172 L 55.048828 44.076172 C 54.528828 43.676172 53.969375 43.345703 53.359375 43.095703 L 52.978516 40.445312 C 52.948516 40.205312 52.738281 40.025391 52.488281 40.025391 L 48.488281 40.025391 z M 50.488281 46.525391 C 52.418281 46.525391 53.988281 48.095391 53.988281 50.025391 C 53.988281 51.955393 52.418281 53.525391 50.488281 53.525391 C 48.558281 53.525391 46.988281 51.955393 46.988281 50.025391 C 46.988281 48.095391 48.558281 46.525391 50.488281 46.525391 z "
       style="display:inline;fill:#ffffff"
       id="path4261"
       d="m 48.488281,40.025391 c -0.25,0 -0.458281,0.179921 -0.488281,0.419921 l -0.380859,2.650391 c -0.61,0.25 -1.169454,0.590469 -1.689453,0.980469 l -2.490235,-1 c -0.23,-0.09 -0.489375,7.03e-4 -0.609375,0.220703 l -2,3.458984 c -0.13,0.22 -0.07086,0.490625 0.119141,0.640625 l 2.109375,1.650391 c -0.04,0.32 -0.07031,0.648516 -0.07031,0.978516 0,0.33 0.03031,0.660468 0.07031,0.980468 l -2.109375,1.650391 c -0.19,0.15 -0.239141,0.420625 -0.119141,0.640625 l 2,3.458984 c 0.12,0.22 0.389375,0.300704 0.609375,0.220703 l 2.490235,-1 c 0.52,0.4 1.079453,0.728516 1.689453,0.978516 L 48,59.605469 c 0.03,0.24 0.238281,0.419922 0.488281,0.419922 l 4,0 c 0.25,0 0.460235,-0.179922 0.490235,-0.419922 l 0.380859,-2.650391 c 0.61,-0.25 1.169453,-0.588515 1.689453,-0.978516 l 2.490234,1 c 0.23,0.09 0.489375,-7.03e-4 0.609376,-0.220703 l 2,-3.458984 c 0.119999,-0.22 0.07086,-0.490625 -0.119141,-0.640625 l -2.109375,-1.650391 c 0.04,-0.32 0.06836,-0.640468 0.06836,-0.980468 0,-0.34 -0.02836,-0.658516 -0.06836,-0.978516 l 2.109375,-1.650391 c 0.19,-0.15 0.23914,-0.420625 0.119141,-0.640625 l -2,-3.458984 c -0.12,-0.22 -0.389375,-0.300703 -0.609376,-0.220703 l -2.490234,1 c -0.52,-0.4 -1.079453,-0.730469 -1.689453,-0.980469 l -0.380859,-2.650391 c -0.03,-0.24 -0.240235,-0.419921 -0.490235,-0.419921 l -4,0 z m 2,6.5 c 1.93,0 3.5,1.57 3.5,3.5 0,1.930002 -1.57,3.5 -3.5,3.5 -1.93,0 -3.5,-1.569998 -3.5,-3.5 0,-1.93 1.57,-3.5 3.5,-3.5 z" />
  </g>
</svg>
